# xmcd CD database file
#
# Track frame offsets:
#	150
#	21575
#	44110
#	67705
#
# Disc length: 1232 seconds
#
# Revision: 7
# Processed by: cddbd v1.5.1PL0 Copyright (c) Steve Scherf et al.
# Submitted via: CDex 1.60beta1
#
DISCID=3304ce04
DTITLE=WY - So Sad
DYEAR=2005
DGENRE=Blues
TTITLE0=So Sad
TTITLE1=OKIROH!
TTITLE2=Born In The 60's
TTITLE3=明日に・・・
EXTD=YEAR: 2005
EXTT0=
EXTT1=
EXTT2=
EXTT3=
PLAYORDER=
